<?xml version="1.0" standalone="no"?>
<!DOCTYPE svg PUBLIC "-//W3C//DTD SVG 20010904//EN"
 "http://www.w3.org/TR/2001/REC-SVG-20010904/DTD/svg10.dtd">
<svg version="1.0" xmlns="http://www.w3.org/2000/svg"
 width="200.000000pt" height="200.000000pt" viewBox="0 0 200.000000 200.000000"
 preserveAspectRatio="xMidYMid meet">
<metadata>
Created by potrace 1.16, written by Peter Selinger 2001-2019
</metadata>
<g transform="translate(0.000000,200.000000) scale(0.100000,-0.100000)"
fill="#000000" stroke="none">
<path d="M494 1355 c1 -8 5 -18 9 -21 15 -15 6 -24 -12 -14 -11 5 -53 10 -93
11 -40 0 -67 3 -60 6 19 7 14 23 -7 23 -29 0 -51 -11 -51 -25 0 -10 -6 -11
-29 -2 -23 8 -36 8 -58 -3 -27 -13 -27 -14 -5 -18 25 -4 20 -22 -7 -22 -21 0
-65 -45 -57 -58 3 -5 -1 -18 -9 -28 -8 -10 -15 -27 -15 -38 0 -16 4 -16 35 8
38 29 43 24 20 -20 -8 -16 -15 -42 -15 -58 l0 -29 39 43 38 42 7 -34 c3 -19
12 -43 20 -53 12 -17 14 -13 21 43 4 34 11 64 15 67 4 3 13 -19 20 -48 7 -28
23 -85 37 -125 14 -40 22 -79 19 -87 -4 -10 -20 -15 -54 -15 -29 0 -56 -6 -68
-16 -17 -14 11 -15 315 -10 184 4 336 8 339 10 9 9 -10 26 -29 26 -11 0 -31 8
-45 17 -31 20 -28 43 13 136 l27 60 22 -47 c23 -50 34 -44 34 15 l0 30 30 -32
c16 -18 33 -30 36 -26 12 11 -17 90 -40 111 l-21 19 28 -7 c35 -8 33 13 -2 30
-13 7 -27 16 -33 22 -8 8 -17 8 -31 0 -16 -8 -22 -7 -29 6 -14 25 -41 21 -33
-5 6 -19 5 -20 -15 -9 -12 7 -34 10 -49 7 -30 -6 -51 3 -55 24 -8 37 -20 49
-58 55 -27 5 -35 10 -26 15 9 6 8 9 -7 9 -11 0 -27 -4 -34 -9 -11 -7 -21 -3
-38 15 -25 27 -42 31 -39 9z m57 -253 c-13 -25 -22 -72 -13 -72 4 0 16 14 28
30 l20 30 14 -35 c8 -19 17 -35 21 -35 4 0 11 21 15 47 5 37 9 43 15 28 10
-27 52 -168 53 -180 1 -5 -21 -12 -48 -15 -53 -7 -130 14 -174 47 -25 19 -25
20 -12 69 9 32 26 60 49 81 37 35 49 37 32 5z"/>
<path d="M1425 1175 c-73 -26 -135 -79 -135 -117 0 -27 17 -22 34 10 8 16 22
34 30 41 14 12 15 10 5 -19 -12 -34 -7 -106 9 -122 7 -7 10 8 9 45 -1 46 3 61
27 92 49 63 130 83 180 44 34 -27 49 -55 41 -80 -7 -20 -8 -19 -25 9 -11 17
-33 35 -53 41 -87 29 -153 -43 -127 -140 12 -43 64 -109 76 -96 4 4 -5 20 -19
35 -39 41 -50 86 -31 130 18 43 29 52 69 51 27 0 28 -1 8 -9 -47 -19 -58 -95
-20 -150 27 -42 100 -80 155 -83 54 -3 54 14 0 28 -24 6 -52 17 -63 23 l-20
13 20 -5 c36 -10 208 -27 213 -21 10 10 -5 15 -64 23 l-59 8 108 8 c59 4 107
12 107 17 0 5 -74 9 -165 9 -184 0 -225 10 -225 54 0 46 52 60 67 19 18 -52
74 -70 106 -35 20 22 21 38 6 98 -9 35 -17 45 -38 50 -14 4 -35 15 -47 25 -34
31 -99 33 -179 4z"/>
<path d="M1075 701 l0 -69 68 0 c59 1 67 3 67 20 0 14 6 19 23 16 15 -2 21 -9
19 -20 -2 -13 4 -18 23 -18 23 0 35 14 18 22 -5 2 -20 28 -35 58 l-26 55 -27
-57 c-31 -68 -39 -76 -42 -40 -2 26 -8 79 -11 95 -1 4 -19 7 -39 7 l-38 0 0
-69z"/>
<path d="M636 750 c-2 -8 -7 -31 -9 -50 -3 -19 -8 -43 -12 -52 -5 -14 -2 -18
13 -18 15 0 18 5 15 24 -7 36 13 40 27 6 16 -38 24 -38 40 1 9 22 15 27 21 17
5 -7 6 -21 3 -30 -4 -15 1 -18 35 -18 34 0 41 3 41 20 0 15 7 20 25 20 18 0
25 -5 25 -20 0 -17 7 -20 45 -20 l44 0 -6 33 -6 32 30 -32 c17 -18 36 -33 42
-33 16 0 14 8 -9 32 -13 15 -17 25 -10 32 16 16 12 44 -9 56 -25 13 -81 13
-81 0 0 -5 5 -10 11 -10 6 0 9 -19 7 -47 -2 -27 -7 -48 -13 -48 -5 1 -23 28
-39 60 l-28 60 -29 -57 c-16 -32 -33 -58 -38 -58 -5 0 -13 25 -16 55 -4 30
-10 55 -14 55 -4 0 -16 -19 -27 -42 l-21 -42 -26 44 c-17 29 -28 39 -31 30z"/>
</g>
</svg>
